/* XPM */
static char * details_xpm[] = {
"24 24 4 1",
" 	c None",
".	c #000000",
"+	c #DEDEDE",
"@	c #FFFFFF",
"                        ",
"                        ",
"  ....................  ",
"  .++++++++++.+++++++.  ",
"  .++++++++++.+++++++.  ",
"  ....................  ",
"  .@@@@@@@@@@@@@@@@@@.  ",
"  .@.........@......@.  ",
"  .@@@@@@@@@@@@@@@@@@.  ",
"  .@.........@......@.  ",
"  .@@@@@@@@@@@@@@@@@@.  ",
"  .@.........@......@.  ",
"  .@@@@@@@@@@@@@@@@@@.  ",
"  .@.........@......@.  ",
"  .@@@@@@@@@@@@@@@@@@.  ",
"  .@.........@......@.  ",
"  .@@@@@@@@@@@@@@@@@@.  ",
"  .@.........@......@.  ",
"  .@@@@@@@@@@@@@@@@@@.  ",
"  .@.........@......@.  ",
"  .@@@@@@@@@@@@@@@@@@.  ",
"  ....................  ",
"                        ",
"                        "};
