/* XPM */
static char * details_win_xpm[] = {
"24 24 5 1",
" 	c None",
".	c #000080",
"+	c #FFFFFF",
"@	c #000000",
"#	c #808080",
"                        ",
"                        ",
"                        ",
"                        ",
"                        ",
"                        ",
"                        ",
"     ..                 ",
"     .+. @@@@ @@@@@     ",
"     ... #### #####     ",
"                        ",
"     ..                 ",
"     .+. @@@@ @@@@@     ",
"     ... #### #####     ",
"                        ",
"     ..                 ",
"     .+. @@@@ @@@@@     ",
"     ... #### #####     ",
"                        ",
"                        ",
"                        ",
"                        ",
"                        ",
"                        "};
