/* XPM */
static char * dir_up_win_xpm[] = {
"24 24 4 1",
" 	c None",
".	c #000000",
"+	c #FFFF00",
"@	c #FFFFFF",
"                        ",
"                        ",
"                        ",
"                        ",
"                        ",
"                        ",
"       .....            ",
"      .+@+@+.           ",
"     ..............     ",
"     .@+@+@+@+@+@+@.    ",
"     .+@+@.@+@+@+@+.    ",
"     .@+@...@+@+@+@.    ",
"     .+@.....@+@+@+.    ",
"     .@+@+.+@+@+@+@.    ",
"     .+@+@.@+@+@+@+.    ",
"     .@+@+......@+@.    ",
"     .+@+@+@+@+@+@+.    ",
"     .@+@+@+@+@+@+@.    ",
"     ...............    ",
"                        ",
"                        ",
"                        ",
"                        ",
"                        "};
