/* XPM */
static char * file_xcf_xpm[] = {
"16 16 5 1",
" 	c None",
".	c #000000",
"+	c #FFF8FF",
"@	c #00A59A",
"#	c #FFFFFF",
"   ...........  ",
"   .+++++++++.  ",
"   .+++++++++...",
"   .+++++++++++.",
"................",
".@@@@@@@@@@@@@@.",
".@+@+@@##@@###@.",
".@+@+@#@@#@#@@@.",
".@@+@@#@@@@##@@.",
".@+@+@#@@#@#@@@.",
".@+@+@@##@@#@@@.",
".@@@@@@@@@@@@@@.",
"................",
"   .+++++++++++.",
"   .+++++++++++.",
"   ............."};
