/* XPM */
static char * file_jpg_xpm[] = {
"16 16 4 1",
" 	c None",
".	c #000000",
"+	c #FFF8FF",
"@	c #7F7800",
"   ...........  ",
"   .+++++++++.  ",
"   .+++++++++...",
"   .+++++++++++.",
"................",
".@@@@@@@@@@@@@@.",
".@+++@++@@@++@@.",
".@@+@@+@+@+@@@@.",
".@@+@@++@@+@+@@.",
".@@+@@+@@@+@@+@.",
".@++@@+@@@@++@@.",
".@@@@@@@@@@@@@@.",
"................",
"   .+++++++++++.",
"   .+++++++++++.",
"   ............."};
