/* XPM */
static char * file_ico_xpm[] = {
"16 16 5 1",
" 	c None",
".	c #000000",
"+	c #FFF8FF",
"@	c #F9C118",
"#	c #FFFFFF",
"   ...........  ",
"   .+++++++++.  ",
"   .+++++++++...",
"   .+++++++++++.",
"................",
".@@@@@@@@@@@@@@.",
".@###@@##@@##@@.",
".@@#@@#@@@#@@#@.",
".@@#@@#@@@#@@#@.",
".@@#@@#@@@#@@#@.",
".@###@@##@@##@@.",
".@@@@@@@@@@@@@@.",
"................",
"   .+++++++++++.",
"   .+++++++++++.",
"   ............."};
