/* XPM */
static char * file_bmp_xpm[] = {
"16 16 5 1",
" 	c None",
".	c #000000",
"+	c #FFF8FF",
"@	c #EA7867",
"#	c #FFFFFF",
"   ...........  ",
"   .+++++++++.  ",
"   .+++++++++...",
"   .+++++++++++.",
"................",
".@@@@@@@@@@@@@@.",
".@##@@#@@#@##@@.",
".@#@#@####@#@#@.",
".@##@@####@##@@.",
".@#@#@#@@#@#@@@.",
".@###@#@@#@#@@@.",
".@@@@@@@@@@@@@@.",
"................",
"   .+++++++++++.",
"   .+++++++++++.",
"   ............."};
