/* XPM */
static char * file_pnm_xpm[] = {
"16 16 4 1",
" 	c None",
".	c #000000",
"+	c #FFF8FF",
"@	c #8FA00C",
"   ...........  ",
"   .+++++++++.  ",
"   .+++++++++...",
"   .+++++++++++.",
"................",
".@@@@@@@@@@@@@@.",
".@++@@+@@+@+@@+.",
".@+@+@++@+@++++.",
".@++@@+@++@++++.",
".@+@@@+@@+@+@@+.",
".@+@@@+@@+@+@@+.",
".@@@@@@@@@@@@@@.",
"................",
"   .+++++++++++.",
"   .+++++++++++.",
"   ............."};
