/* XPM */
static char * file_gif_xpm[] = {
"16 16 4 1",
" 	c None",
".	c #000000",
"+	c #FFF8FF",
"@	c #007800",
"   ...........  ",
"   .+++++++++.  ",
"   .+++++++++...",
"   .+++++++++++.",
"................",
".@@@@@@@@@@@@@@.",
".@@++@@+++@++++.",
".@+@@@@@+@@+@@@.",
".@+@+@@@+@@+++@.",
".@+@@+@@+@@+@@@.",
".@@++@@+++@+@@@.",
".@@@@@@@@@@@@@@.",
"................",
"   .+++++++++++.",
"   .+++++++++++.",
"   ............."};
