/* XPM */
static char * fit_screen_xpm[] = {
"24 24 4 1",
" 	c None",
".	c #000000",
"+	c #000080",
"@	c #FFFFFF",
"                        ",
"                        ",
"                        ",
"                        ",
"                        ",
"    ........... ...     ",
"    .+++++++++.   .     ",
"    .+++++++++.         ",
"    .@@@@@@@@@.   .     ",
"    .@@@@....@.   .     ",
"    .@@@@...@@.         ",
"    .@@@@....@.   .     ",
"    .@@@@.@....   .     ",
"    .@@@@@@@...         ",
"    ............  .     ",
"              ... .     ",
"    .          .. .     ",
"    .             .     ",
"    .. .. .. .. ...     ",
"                        ",
"                        ",
"                        ",
"                        ",
"                        "};
