/* XPM */
static char * full_screen_xpm[] = {
"24 24 5 1",
" 	c None",
".	c #FF0000",
"+	c #000000",
"@	c #000080",
"#	c #FFFFFF",
"                        ",
"                        ",
"                        ",
"                        ",
"                        ",
"    .....      .....    ",
"    ...          ...    ",
"    ....        ....    ",
"    . .++++++++++. .    ",
"    .  +@@@@@@@@+  .    ",
"       +########+       ",
"       +########+       ",
"       +########+       ",
"       +########+       ",
"    .  +########+  .    ",
"    . .++++++++++. .    ",
"    ....        ....    ",
"    ...          ...    ",
"    .....      .....    ",
"                        ",
"                        ",
"                        ",
"                        ",
"                        "};
