/* XPM */
static char * open_archive_win_xpm[] = {
"24 24 32 1",
" 	c None",
".	c #000000",
"+	c #ADADAD",
"@	c #FFFF19",
"#	c #171700",
"$	c #191900",
"%	c #808080",
"&	c #030300",
"*	c #15150D",
"=	c #16160A",
"-	c #181806",
";	c #141411",
">	c #191902",
",	c #575700",
"'	c #FFFF00",
")	c #C0C0C0",
"!	c #3F3F28",
"~	c #43431D",
"{	c #FFFFFF",
"]	c #474711",
"^	c #3B3B34",
"/	c #4B4B06",
"(	c #B2B29C",
"_	c #3A3A3A",
":	c #343434",
"<	c #060606",
"[	c #0A0A0A",
"}	c #121212",
"|	c #181800",
"1	c #0D0D0D",
"2	c #797979",
"3	c #9D9D9D",
"                        ",
"                        ",
"          .........     ",
"          +@+@+@+@+     ",
"         #@+@+@+@+@$    ",
"   %%%%% &#*=-;>*=,@$   ",
"  %')')'%        .!+*   ",
" %')')')'%%%%%%   ~@=   ",
" %{{{{{{{{{{{{%.  ]+-   ",
" %{')')')')')'%.  ^@;   ",
" %{)')')')')')%.  /+>   ",
" %{')')')')')'%.  !@*   ",
" %{)')')')')')%.  ~+=   ",
" %{')')')')')'%.  ]@-   ",
" %%%%%%%%%%%%%%.  ^(;   ",
"  ..............  /@>   ",
"         _____:<..!+*   ",
"         [+@+@+@+@+@=   ",
"         }@+@+@+@+@+|   ",
"          ......1[..    ",
"             ...23      ",
"     ................   ",
"                        ",
"                        "};
