/* XPM */
static char * open_archive_xpm[] = {
"24 24 144 2",
"  	c None",
". 	c #000000",
"+ 	c #99907B",
"@ 	c #9C9480",
"# 	c #867E6F",
"$ 	c #898370",
"% 	c #8F8877",
"& 	c #060605",
"* 	c #A6A190",
"= 	c #595649",
"- 	c #73756E",
"; 	c #1C2325",
"> 	c #56625C",
", 	c #61696C",
"' 	c #8B9294",
") 	c #9B927D",
"! 	c #938C79",
"~ 	c #696F63",
"{ 	c #4E5850",
"] 	c #93A094",
"^ 	c #56655C",
"/ 	c #010B03",
"( 	c #A8BCB1",
"_ 	c #A4B7AE",
": 	c #75867F",
"< 	c #4A5851",
"[ 	c #636F66",
"} 	c #A29A86",
"| 	c #9A9A90",
"1 	c #434743",
"2 	c #869188",
"3 	c #717F72",
"4 	c #1F2F1F",
"5 	c #0C1F10",
"6 	c #C1D9C9",
"7 	c #B4CBBC",
"8 	c #A5BAAD",
"9 	c #839589",
"0 	c #78857A",
"a 	c #535A51",
"b 	c #948F7E",
"c 	c #676B66",
"d 	c #C0C7C0",
"e 	c #9BA69E",
"f 	c #3F4E41",
"g 	c #1E341F",
"h 	c #29412B",
"i 	c #243C28",
"j 	c #A2BEA8",
"k 	c #9BB5A0",
"l 	c #89A38F",
"m 	c #788C7B",
"n 	c #8A9A8B",
"o 	c #586457",
"p 	c #30382D",
"q 	c #9C9D97",
"r 	c #B8BDB6",
"s 	c #ECF3EC",
"t 	c #DEE9DF",
"u 	c #BECFBE",
"v 	c #849F84",
"w 	c #627E62",
"x 	c #536F54",
"y 	c #7E9D82",
"z 	c #749278",
"A 	c #79967C",
"B 	c #829C86",
"C 	c #7F947F",
"D 	c #5E6B5A",
"E 	c #414C3E",
"F 	c #646660",
"G 	c #D8DED7",
"H 	c #F6FBF6",
"I 	c #EFFBF1",
"J 	c #DBEEDC",
"K 	c #C9E2C7",
"L 	c #A7C4A6",
"M 	c #698869",
"N 	c #86A789",
"O 	c #91B394",
"P 	c #89A88B",
"Q 	c #749075",
"R 	c #728A73",
"S 	c #637361",
"T 	c #404C3C",
"U 	c #353E32",
"V 	c #908C7D",
"W 	c #6E726B",
"X 	c #989E97",
"Y 	c #C7D3CA",
"Z 	c #CFE3D0",
"` 	c #D8F3D7",
" .	c #98B697",
"..	c #638162",
"+.	c #6D8E6D",
"@.	c #8CAE8D",
"#.	c #89A98A",
"$.	c #678369",
"%.	c #4F6550",
"&.	c #1A2519",
"*.	c #283626",
"=.	c #333933",
"-.	c #545F55",
";.	c #718172",
">.	c #7D957B",
",.	c #314930",
"'.	c #698567",
").	c #385637",
"!.	c #587757",
"~.	c #425F42",
"{.	c #091E08",
"].	c #000400",
"^.	c #182518",
"/.	c #323931",
"(.	c #97A299",
"_.	c #788578",
":.	c #4B604A",
"<.	c #516750",
"[.	c #8AA287",
"}.	c #355133",
"|.	c #314C30",
"1.	c #051E04",
"2.	c #001200",
"3.	c #192718",
"4.	c #1C251C",
"5.	c #C7D0C8",
"6.	c #202B21",
"7.	c #6D766E",
"8.	c #859384",
"9.	c #8D9B89",
"0.	c #A2B39E",
"a.	c #5E755C",
"b.	c #475C45",
"c.	c #273925",
"d.	c #222F21",
"e.	c #39423B",
"f.	c #6D786D",
"g.	c #4B544A",
"h.	c #A5B4A3",
"i.	c #465744",
"j.	c #3A4A38",
"k.	c #142214",
"l.	c #424941",
"m.	c #758473",
"                                                ",
"                                                ",
"                        . .                     ",
"                  . . . + + .                   ",
"    . .     . . . + + + +       . . .           ",
"  . + + . . + + + +         . . + + .           ",
"  . + + + + +           . . + + + + .           ",
"    . + +           . . + + + + + + .           ",
"    . + +       . . + + + + @ # $ % &           ",
"      . +     . + + + + * = - ; > , '           ",
"      . + +   . + ) ! ~ { ] ^ / ( _ : < [       ",
"        . +   . } | 1 2 3 4 . 5 6 7 8 9 0 a     ",
"        . + + . b c d e f g h i j k l m n o p   ",
"          . + . q r s t u v w x y z A B C D E   ",
"          . + . F G H I J K L M N O P Q R S T U ",
"            . . V W X Y Z `  ...+.@.#.$.%.&.*.  ",
"            . . + . =.-.;.>.,.'.).!.~.{.].^.    ",
"              . .   /.(._.:.<.[.}.|.1.2.3.4.    ",
"                    5.6.7.8.9.0.a.b.c.d.e.      ",
"                          f.g.h.i.j.k.          ",
"                              l.m.              ",
"                                                ",
"                                                ",
"                                                "};
