/* XPM */
static char * refresh_win_xpm[] = {
"24 24 2 1",
" 	c None",
".	c #000080",
"                        ",
"                        ",
"                        ",
"                        ",
"                        ",
"                        ",
"         ......         ",
"        ..    ..        ",
"       ..      ..       ",
"      ..        ..      ",
"    .....        .      ",
"     ...                ",
"      .          .      ",
"                ...     ",
"      .        .....    ",
"      ..        ..      ",
"       ..      ..       ",
"        ..     .        ",
"         ......         ",
"                        ",
"                        ",
"                        ",
"                        ",
"                        "};
