/* XPM */
static char * remember_settings_xpm[] = {
"24 24 4 1",
" 	c None",
".	c #6E6E6E",
"+	c #FFFFFF",
"@	c #B7B7B7",
"                        ",
"                        ",
"                        ",
"                        ",
"                        ",
"                        ",
"                        ",
"                        ",
"           ..     .     ",
"           .+.   ..     ",
"           .++...+.     ",
"     ++++++.@+@+@+.     ",
"     @@@@@@.@+@+@+.     ",
"     .......@@.@.@.     ",
"           .@......     ",
"           ...   ..     ",
"           ..     .     ",
"                        ",
"                        ",
"                        ",
"                        ",
"                        ",
"                        ",
"                        "};
