/* XPM */
static char * rotate_right_win_xpm[] = {
"24 24 3 1",
" 	c None",
".	c #808080",
"+	c #000080",
"                        ",
"                        ",
"                        ",
"                        ",
"                        ",
"                        ",
"                        ",
"                        ",
"                        ",
"       .++++            ",
"      .+    ++   +      ",
"      +       + ++      ",
"      +        +++      ",
"      +       ++++      ",
"      .+     +++++      ",
"       +.               ",
"                        ",
"                        ",
"                        ",
"                        ",
"                        ",
"                        ",
"                        ",
"                        "};
