/* XPM */
static char * rotate_left_win_xpm[] = {
"24 24 3 1",
" 	c None",
".	c #000080",
"+	c #808080",
"                        ",
"                        ",
"                        ",
"                        ",
"                        ",
"                        ",
"                        ",
"                        ",
"                        ",
"            ....+       ",
"      .   ..    .+      ",
"      .. .       .      ",
"      ...        .      ",
"      ....       .      ",
"      .....     .+      ",
"               +.       ",
"                        ",
"                        ",
"                        ",
"                        ",
"                        ",
"                        ",
"                        ",
"                        "};
