/* XPM */
static char * slideshow_win_xpm[] = {
"24 24 5 1",
" 	c None",
".	c #000080",
"+	c #000000",
"@	c #FFFFFF",
"#	c #C0C0C0",
"                        ",
"                        ",
"                        ",
"                        ",
"                        ",
"                        ",
"    ...............     ",
"    +++++++++++++++     ",
"     .@@@@@@@@@@@.      ",
"     .@@@+++++#@#.      ",
"     .@@@@@@@@@#@.      ",
"     .@@+@+++++@#.      ",
"     .@@@#@#@#@#@.      ",
"     .@@+@+++++@#.      ",
"     .@#@#@#@#@#@.      ",
"     .............      ",
"         +++++          ",
"        ++ + ++         ",
"       ++  +  ++        ",
"      ++       ++       ",
"                        ",
"                        ",
"                        ",
"                        "};
