/* XPM */
static char * thumbnails_xpm[] = {
"24 24 9 1",
" 	c None",
".	c #FFFFFF",
"+	c #7B797B",
"@	c #D6D6D6",
"#	c #00007B",
"$	c #00FFFF",
"%	c #000000",
"&	c #00FF00",
"*	c #FF0000",
"                        ",
"                        ",
"                        ",
"                        ",
"   ......+    ......+   ",
"   .@@@@@+    .@@@@@+   ",
"   .@###@+    .@$$$@+   ",
"   .@###@+    .@$$$@+   ",
"   .@###@+    .@$$$@+   ",
"   .@@@@@%    .@@@@@%   ",
"   +++++%%    +++++%%   ",
"                        ",
"                        ",
"   ......+    ......+   ",
"   .@@@@@+    .@@@@@+   ",
"   .@&&&@+    .@***@+   ",
"   .@&&&@+    .@***@+   ",
"   .@&&&@+    .@***@+   ",
"   .@@@@@%    .@@@@@%   ",
"   +++++%%    +++++%%   ",
"                        ",
"                        ",
"                        ",
"                        "};
