/* XPM */
static char * thumbnails_win_xpm[] = {
"24 24 6 1",
" 	c None",
".	c #000080",
"+	c #FFFFFF",
"@	c #C0C0C0",
"#	c #808080",
"$	c #000000",
"                        ",
"                        ",
"                        ",
"                        ",
"                        ",
"                        ",
"                        ",
"     .....              ",
"     .++@#.             ",
"     .++@@.             ",
"     .++++.  .....      ",
"     .++++.  .++@#.     ",
"     .++++.  .++@@.     ",
"     ......  .++++.     ",
"             .++++.     ",
"     $$$$$$  .++++.     ",
"             ......     ",
"                        ",
"             $$$$$$     ",
"                        ",
"                        ",
"                        ",
"                        ",
"                        "};
