/* XPM */
static char * view_xpm[] = {
"24 24 113 2",
"  	c None",
". 	c #000000",
"+ 	c #1B1B1B",
"@ 	c #484848",
"# 	c #E2E2E2",
"$ 	c #F0F0F0",
"% 	c #F4F4F4",
"& 	c #E4E4E4",
"* 	c #5C5C5C",
"= 	c #242424",
"- 	c #363636",
"; 	c #838383",
"> 	c #E6E6E6",
", 	c #FFFFFF",
"' 	c #EFEFEF",
") 	c #BEBEBE",
"! 	c #0A0A0A",
"~ 	c #515151",
"{ 	c #F3F3F3",
"] 	c #F6F6F6",
"^ 	c #F8F8F8",
"/ 	c #FAFAFA",
"( 	c #ECECEC",
"_ 	c #6C6C6C",
": 	c #A4A4A4",
"< 	c #F7F7F7",
"[ 	c #FCFCFC",
"} 	c #262525",
"| 	c #0E0E0E",
"1 	c #E1E1E1",
"2 	c #EEEEEE",
"3 	c #F1F1F1",
"4 	c #F2F2F2",
"5 	c #F5F5F5",
"6 	c #E8E8E8",
"7 	c #292929",
"8 	c #5F5F5F",
"9 	c #FBFBFB",
"0 	c #FDFDFD",
"a 	c #FEFEFE",
"b 	c #B5B5B5",
"c 	c #484646",
"d 	c #EBEBEB",
"e 	c #EDEDED",
"f 	c #2C2C2C",
"g 	c #676767",
"h 	c #F9F9F9",
"i 	c #C5C5C5",
"j 	c #E3E3E3",
"k 	c #E7E7E7",
"l 	c #E9E9E9",
"m 	c #EAEAEA",
"n 	c #686868",
"o 	c #C8C8C8",
"p 	c #DFDFDF",
"q 	c #B9B9B9",
"r 	c #4D4D4D",
"s 	c #CDCDCD",
"t 	c #2B2B2B",
"u 	c #666666",
"v 	c #868686",
"w 	c #757575",
"x 	c #C4C4C4",
"y 	c #0D0D0D",
"z 	c #D8D8D8",
"A 	c #D9D9D9",
"B 	c #DBDBDB",
"C 	c #2A2A2A",
"D 	c #DCDCDC",
"E 	c #E5E5E5",
"F 	c #9F9F9F",
"G 	c #848484",
"H 	c #B3B3B3",
"I 	c #625F5F",
"J 	c #1A1919",
"K 	c #7C7C7C",
"L 	c #D4D4D4",
"M 	c #D6D6D6",
"N 	c #D7D7D7",
"O 	c #707070",
"P 	c #8C8C8C",
"Q 	c #919191",
"R 	c #202020",
"S 	c #B7B7B7",
"T 	c #E0E0E0",
"U 	c #C9C9C9",
"V 	c #BCBCBC",
"W 	c #373636",
"X 	c #343434",
"Y 	c #8A8A8A",
"Z 	c #CFCFCF",
"` 	c #D0D0D0",
" .	c #D2D2D2",
"..	c #D3D3D3",
"+.	c #979797",
"@.	c #474747",
"#.	c #232222",
"$.	c #181717",
"%.	c #ACACAC",
"&.	c #DDDDDD",
"*.	c #CACACA",
"=.	c #131313",
"-.	c #353434",
";.	c #444444",
">.	c #454545",
",.	c #464646",
"'.	c #090909",
").	c #151515",
"!.	c #807C7C",
"~.	c #2B2929",
"{.	c #171616",
"].	c #585555",
"^.	c #050505",
"                                                ",
"                                                ",
"                                                ",
"                                                ",
"                                                ",
"                                                ",
"                                                ",
"        . . . . . .       . . . . . . .         ",
"      + @ # $ % & * =   . - ; > , ' ) @ !       ",
"    . ~ & { ] ^ / ( _ . . : < , , , [ & + .     ",
"  } | 1 2 3 4 { % 5 6 7 8 4 9 [ 0 a a , b .     ",
"  c | > d ( e 2 ' $ e f g 4 ] < h h 9 [ i .     ",
"  c | j & > k 6 l m d f n ' $ 3 4 { 5 5 o .     ",
"  c | p p 1 # q r s > t u m d ( l v w m x .     ",
"  c y z A B B | . C D 7 8 1 E > F . . G H .     ",
"  I J K L M N O . P Q | R S T 1 U - = V r .     ",
"    W X Y Z `  ...+.@.#.$._ %.B D &.*.Q =.      ",
"      -.. ;.>.>.,.'..   I ).+ @ @ @ - .         ",
"        !.~.~.~.{.        !.].~.~.~.^.          ",
"                                                ",
"                                                ",
"                                                ",
"                                                ",
"                                                "};
