/* XPM */
static char * zip_xpm[] = {
"16 16 131 2",
"  	c None",
". 	c #646B69",
"+ 	c #1C2325",
"@ 	c #56625C",
"# 	c #61696C",
"$ 	c #778387",
"% 	c #5A655C",
"& 	c #4F5A51",
"* 	c #93A094",
"= 	c #56655C",
"- 	c #010B03",
"; 	c #A8BCB1",
"> 	c #A4B7AE",
", 	c #75867F",
"' 	c #4A5851",
") 	c #636F66",
"! 	c #9B9F9A",
"~ 	c #434743",
"{ 	c #869188",
"] 	c #717F72",
"^ 	c #1F2F1F",
"/ 	c #000000",
"( 	c #0C1F10",
"_ 	c #C1D9C9",
": 	c #B4CBBC",
"< 	c #A5BAAD",
"[ 	c #839589",
"} 	c #78857A",
"| 	c #535A51",
"1 	c #676B66",
"2 	c #C0C7C0",
"3 	c #9BA69E",
"4 	c #3F4E41",
"5 	c #1E341F",
"6 	c #29412B",
"7 	c #243C28",
"8 	c #A2BEA8",
"9 	c #9BB5A0",
"0 	c #89A38F",
"a 	c #788C7B",
"b 	c #8A9A8B",
"c 	c #586457",
"d 	c #30382D",
"e 	c #8C8E89",
"f 	c #B8BDB6",
"g 	c #ECF3EC",
"h 	c #DEE9DF",
"i 	c #BECFBE",
"j 	c #849F84",
"k 	c #627E62",
"l 	c #536F54",
"m 	c #7E9D82",
"n 	c #749278",
"o 	c #79967C",
"p 	c #829C86",
"q 	c #7F947F",
"r 	c #5E6B5A",
"s 	c #414C3E",
"t 	c #62645F",
"u 	c #D8DED7",
"v 	c #F6FBF6",
"w 	c #EFFBF1",
"x 	c #DBEEDC",
"y 	c #C9E2C7",
"z 	c #A7C4A6",
"A 	c #698869",
"B 	c #86A789",
"C 	c #91B394",
"D 	c #89A88B",
"E 	c #749075",
"F 	c #728A73",
"G 	c #637361",
"H 	c #404C3C",
"I 	c #353E32",
"J 	c #6B706A",
"K 	c #9AA099",
"L 	c #C7D3CA",
"M 	c #CFE3D0",
"N 	c #D8F3D7",
"O 	c #98B697",
"P 	c #638162",
"Q 	c #6D8E6D",
"R 	c #8CAE8D",
"S 	c #89A98A",
"T 	c #678369",
"U 	c #4F6550",
"V 	c #1A2519",
"W 	c #283626",
"X 	c #373E37",
"Y 	c #545F55",
"Z 	c #718172",
"` 	c #7D957B",
" .	c #314930",
"..	c #698567",
"+.	c #385637",
"@.	c #587757",
"#.	c #425F42",
"$.	c #091E08",
"%.	c #000400",
"&.	c #182518",
"*.	c #323931",
"=.	c #97A299",
"-.	c #788578",
";.	c #4B604A",
">.	c #516750",
",.	c #8AA287",
"'.	c #355133",
").	c #314C30",
"!.	c #051E04",
"~.	c #001200",
"{.	c #192718",
"].	c #1C251C",
"^.	c #C7D0C8",
"/.	c #202B21",
"(.	c #6D766E",
"_.	c #859384",
":.	c #8D9B89",
"<.	c #A2B39E",
"[.	c #5E755C",
"}.	c #475C45",
"|.	c #273925",
"1.	c #222F21",
"2.	c #39423B",
"3.	c #6D786D",
"4.	c #4B544A",
"5.	c #A5B4A3",
"6.	c #465744",
"7.	c #3A4A38",
"8.	c #142214",
"9.	c #424941",
"0.	c #758473",
"                                ",
"                                ",
"            . + @ # $           ",
"      % & * = - ; > , ' )       ",
"  ! ~ { ] ^ / ( _ : < [ } |     ",
"  1 2 3 4 5 6 7 8 9 0 a b c d   ",
"e f g h i j k l m n o p q r s   ",
"t u v w x y z A B C D E F G H I ",
"  J K L M N O P Q R S T U V W   ",
"    X Y Z `  ...+.@.#.$.%.&.    ",
"    *.=.-.;.>.,.'.).!.~.{.].    ",
"    ^./.(._.:.<.[.}.|.1.2.      ",
"          3.4.5.6.7.8.          ",
"              9.0.              ",
"                                ",
"                                "};
