/* XPM */
static char * zoom_out_win_xpm[] = {
"24 24 6 1",
" 	c None",
".	c #808080",
"+	c #000000",
"@	c #FFFFFF",
"#	c #C0C0C0",
"$	c #000080",
"                        ",
"                        ",
"                        ",
"                        ",
"                        ",
"       .++++.           ",
"      ++@#@#++          ",
"     +.@#@#@@.+         ",
"    .+@#@@@@@@+.        ",
"    +@#@@@@@@@@+        ",
"    +#@$$$$$$@#+        ",
"    +@#$$$$$$#@+        ",
"    +#@@@@@@#@@+        ",
"    .+@@@@@@@@+.        ",
"     +.@#@@@@.+.        ",
"      ++@#@#++.$.       ",
"       .++++. $.+.      ",
"               +++.     ",
"               .+++.    ",
"                .+++    ",
"                        ",
"                        ",
"                        ",
"                        "};
