/* XPM */
static char * zoom_in_xpm[] = {
"24 24 112 2",
"  	c None",
". 	c #000000",
"+ 	c #31312E",
"@ 	c #6C6C63",
"# 	c #8B8B7F",
"$ 	c #818176",
"% 	c #464640",
"& 	c #0B0B0A",
"* 	c #121211",
"= 	c #81817A",
"- 	c #DEDED4",
"; 	c #DEDED2",
"> 	c #DDDDCE",
", 	c #DFDFCF",
"' 	c #DBDBC9",
") 	c #AEAE9F",
"! 	c #20201E",
"~ 	c #808079",
"{ 	c #E1E1DA",
"] 	c #F3F3EE",
"^ 	c #EFEFE7",
"/ 	c #4C4C47",
"( 	c #ACAC9F",
"_ 	c #D3D3C2",
": 	c #CDCDBC",
"< 	c #919185",
"[ 	c #191917",
"} 	c #DCDCD1",
"| 	c #F0F0EB",
"1 	c #FCFCFA",
"2 	c #F6F6F1",
"3 	c #8D8D83",
"4 	c #CBCBBA",
"5 	c #C4C4B3",
"6 	c #BBBBAB",
"7 	c #66665D",
"8 	c #6C6C64",
"9 	c #DDDDD1",
"0 	c #ECECE3",
"a 	c #F4F4ED",
"b 	c #EDEDE4",
"c 	c #88887D",
"d 	c #C3C3B3",
"e 	c #BCBCAC",
"f 	c #B3B3A4",
"g 	c #929285",
"h 	c #8C8C81",
"i 	c #DEDECF",
"j 	c #4B4B46",
"k 	c #AAAA9B",
"l 	c #A2A293",
"m 	c #838379",
"n 	c #DEDECD",
"o 	c #A9A99C",
"p 	c #8B8B80",
"q 	c #86867C",
"r 	c #51514A",
"s 	c #76766B",
"t 	c #717167",
"u 	c #A3A394",
"v 	c #919184",
"w 	c #454540",
"x 	c #D6D6C5",
"y 	c #D0D0BF",
"z 	c #C7C7B7",
"A 	c #C1C1B0",
"B 	c #75756B",
"C 	c #A9A99A",
"D 	c #9A9A8B",
"E 	c #606057",
"F 	c #AAAA9C",
"G 	c #C8C8B7",
"H 	c #C0C0B0",
"I 	c #B9B9A9",
"J 	c #707066",
"K 	c #A1A193",
"L 	c #9B9B8C",
"M 	c #858579",
"N 	c #2A2A26",
"O 	c #1F1F1D",
"P 	c #8D8D81",
"Q 	c #B6B6A7",
"R 	c #B0B0A0",
"S 	c #A7A798",
"T 	c #A1A192",
"U 	c #98988A",
"V 	c #848478",
"W 	c #2D2D29",
"X 	c #080604",
"Y 	c #090500",
"Z 	c #181816",
"` 	c #63635A",
" .	c #8E8E82",
"..	c #9E9E8F",
"+.	c #5E5E56",
"@.	c #292925",
"#.	c #786A5B",
"$.	c #654829",
"%.	c #1F1000",
"&.	c #060300",
"*.	c #604529",
"=.	c #CBAE8F",
"-.	c #8B653D",
";.	c #1C0F00",
">.	c #6A4A29",
",.	c #100800",
"'.	c #211100",
").	c #704D29",
"!.	c #3F3429",
"~.	c #180C00",
"{.	c #554330",
"].	c #26211B",
"                                                ",
"                                                ",
"                                                ",
"                                                ",
"                . . . . .                       ",
"              . + @ # $ % &                     ",
"            * = - ; > , ' ) ! .                 ",
"          . ~ { ] ^ / ( _ : < [                 ",
"        . + } | 1 2 . 3 4 5 6 7 .               ",
"        . 8 9 0 a b . c d e f g .               ",
"        . h i j . . . . . . k l .               ",
"        . m n o p q . r s t u v .               ",
"        . w x y z A . B C l D E .               ",
"          & F G H I . J K L M N .               ",
"            O P Q R S T U V W X Y               ",
"            . Z `  ... .+.@.X #.$.%.            ",
"                . . . . . . &.*.=.-.%.          ",
"                              ;.-.=.>.,.        ",
"                                '.).=.!.        ",
"                                  ~.{.].        ",
"                                                ",
"                                                ",
"                                                ",
"                                                "};
