/* XPM */
static char * zoom_out_xpm[] = {
"24 24 105 2",
"  	c None",
". 	c #000000",
"+ 	c #31312E",
"@ 	c #6C6C63",
"# 	c #8B8B7F",
"$ 	c #818176",
"% 	c #464640",
"& 	c #0B0B0A",
"* 	c #121211",
"= 	c #81817A",
"- 	c #DEDED4",
"; 	c #DEDED2",
"> 	c #DDDDCE",
", 	c #DFDFCF",
"' 	c #DBDBC9",
") 	c #AEAE9F",
"! 	c #20201E",
"~ 	c #808079",
"{ 	c #E1E1DA",
"] 	c #F3F3EE",
"^ 	c #EFEFE7",
"/ 	c #D3D3C2",
"( 	c #CDCDBC",
"_ 	c #919185",
": 	c #191917",
"< 	c #DCDCD1",
"[ 	c #F0F0EB",
"} 	c #FCFCFA",
"| 	c #F6F6F1",
"1 	c #CBCBBA",
"2 	c #C4C4B3",
"3 	c #BBBBAB",
"4 	c #66665D",
"5 	c #6C6C64",
"6 	c #DDDDD1",
"7 	c #ECECE3",
"8 	c #F4F4ED",
"9 	c #EDEDE4",
"0 	c #C3C3B3",
"a 	c #BCBCAC",
"b 	c #B3B3A4",
"c 	c #929285",
"d 	c #8C8C81",
"e 	c #DEDECF",
"f 	c #4B4B46",
"g 	c #AAAA9B",
"h 	c #A2A293",
"i 	c #838379",
"j 	c #DEDECD",
"k 	c #A9A99C",
"l 	c #8B8B80",
"m 	c #86867C",
"n 	c #76766B",
"o 	c #717167",
"p 	c #A3A394",
"q 	c #919184",
"r 	c #454540",
"s 	c #D6D6C5",
"t 	c #D0D0BF",
"u 	c #C7C7B7",
"v 	c #C1C1B0",
"w 	c #A9A99A",
"x 	c #9A9A8B",
"y 	c #606057",
"z 	c #AAAA9C",
"A 	c #C8C8B7",
"B 	c #C0C0B0",
"C 	c #B9B9A9",
"D 	c #A1A193",
"E 	c #9B9B8C",
"F 	c #858579",
"G 	c #2A2A26",
"H 	c #1F1F1D",
"I 	c #8D8D81",
"J 	c #B6B6A7",
"K 	c #B0B0A0",
"L 	c #A7A798",
"M 	c #A1A192",
"N 	c #98988A",
"O 	c #848478",
"P 	c #2D2D29",
"Q 	c #080604",
"R 	c #090500",
"S 	c #181816",
"T 	c #63635A",
"U 	c #8E8E82",
"V 	c #9E9E8F",
"W 	c #5E5E56",
"X 	c #292925",
"Y 	c #786A5B",
"Z 	c #654829",
"` 	c #1F1000",
" .	c #060300",
"..	c #604529",
"+.	c #CBAE8F",
"@.	c #8B653D",
"#.	c #1C0F00",
"$.	c #6A4A29",
"%.	c #100800",
"&.	c #211100",
"*.	c #704D29",
"=.	c #3F3429",
"-.	c #180C00",
";.	c #554330",
">.	c #26211B",
"                                                ",
"                                                ",
"                                                ",
"                                                ",
"                . . . . .                       ",
"              . + @ # $ % &                     ",
"            * = - ; > , ' ) ! .                 ",
"          . ~ { ] ^ ^ / / ( _ :                 ",
"        . + < [ } | | 1 1 2 3 4 .               ",
"        . 5 6 7 8 9 6 0 0 a b c .               ",
"        . d e f . . . . . . g h .               ",
"        . i j k l m n n n o p q .               ",
"        . r s t u v v v w h x y .               ",
"          & z A B C C D D E F G .               ",
"            H I J K L M N O P Q R               ",
"            . S T U V U W X Q Y Z `             ",
"                . . . . . .  ...+.@.`           ",
"                              #.@.+.$.%.        ",
"                                &.*.+.=.        ",
"                                  -.;.>.        ",
"                                                ",
"                                                ",
"                                                ",
"                                                "};
