/* XPM */
static char * zip_win_xpm[] = {
"16 16 5 1",
" 	c None",
".	c #000000",
"+	c #FFFF00",
"@	c #C0C0C0",
"#	c #FFFFFF",
"      .......   ",
"     .+@+@+@+.  ",
" ... ........+. ",
".###.       .@. ",
".@@@@...... .+. ",
".@#######@. .@. ",
".@#++++++@. .+. ",
".@#++++++@. .@. ",
".@#++++++@. .+. ",
".@#++++++@. .@. ",
".@@@@@@@@@. .+. ",
".............@. ",
"     .@+@+@+@+. ",
"      ........  ",
"          .@    ",
"       ...@.... "};
